<svg width="20" height="21" viewBox="0 0 20 21" fill="none" xmlns="http://www.w3.org/2000/svg">
<g clip-path="url(#clip0_547_331)">
<g filter="url(#filter0_d_547_331)">
<path d="M15 3.61393H14.1667V2.7806C14.1667 2.55959 14.0789 2.34762 13.9226 2.19134C13.7663 2.03506 13.5543 1.94727 13.3333 1.94727C13.1123 1.94727 12.9004 2.03506 12.7441 2.19134C12.5878 2.34762 12.5 2.55959 12.5 2.7806V3.61393H7.5V2.7806C7.5 2.55959 7.4122 2.34762 7.25592 2.19134C7.09964 2.03506 6.88768 1.94727 6.66667 1.94727C6.44565 1.94727 6.23369 2.03506 6.07741 2.19134C5.92113 2.34762 5.83333 2.55959 5.83333 2.7806V3.61393H5C4.33696 3.61393 3.70107 3.87732 3.23223 4.34617C2.76339 4.81501 2.5 5.45089 2.5 6.11393V16.1139C2.5 16.777 2.76339 17.4129 3.23223 17.8817C3.70107 18.3505 4.33696 18.6139 5 18.6139H15C15.663 18.6139 16.2989 18.3505 16.7678 17.8817C17.2366 17.4129 17.5 16.777 17.5 16.1139V6.11393C17.5 5.45089 17.2366 4.81501 16.7678 4.34617C16.2989 3.87732 15.663 3.61393 15 3.61393V3.61393ZM6.66667 14.4473C6.50185 14.4473 6.34073 14.3984 6.20369 14.3068C6.06665 14.2153 5.95984 14.0851 5.89677 13.9328C5.83369 13.7806 5.81719 13.613 5.84935 13.4514C5.8815 13.2897 5.96087 13.1412 6.07741 13.0247C6.19395 12.9081 6.34244 12.8288 6.50409 12.7966C6.66574 12.7645 6.8333 12.781 6.98557 12.844C7.13784 12.9071 7.26799 13.0139 7.35956 13.151C7.45113 13.288 7.5 13.4491 7.5 13.6139C7.5 13.8349 7.4122 14.0469 7.25592 14.2032C7.09964 14.3595 6.88768 14.4473 6.66667 14.4473V14.4473ZM13.3333 14.4473H10C9.77899 14.4473 9.56702 14.3595 9.41074 14.2032C9.25446 14.0469 9.16667 13.8349 9.16667 13.6139C9.16667 13.3929 9.25446 13.181 9.41074 13.0247C9.56702 12.8684 9.77899 12.7806 10 12.7806H13.3333C13.5543 12.7806 13.7663 12.8684 13.9226 13.0247C14.0789 13.181 14.1667 13.3929 14.1667 13.6139C14.1667 13.8349 14.0789 14.0469 13.9226 14.2032C13.7663 14.3595 13.5543 14.4473 13.3333 14.4473ZM15.8333 9.44727H4.16667V6.11393C4.16667 5.89292 4.25446 5.68096 4.41074 5.52468C4.56702 5.3684 4.77899 5.2806 5 5.2806H5.83333V6.11393C5.83333 6.33495 5.92113 6.54691 6.07741 6.70319C6.23369 6.85947 6.44565 6.94727 6.66667 6.94727C6.88768 6.94727 7.09964 6.85947 7.25592 6.70319C7.4122 6.54691 7.5 6.33495 7.5 6.11393V5.2806H12.5V6.11393C12.5 6.33495 12.5878 6.54691 12.7441 6.70319C12.9004 6.85947 13.1123 6.94727 13.3333 6.94727C13.5543 6.94727 13.7663 6.85947 13.9226 6.70319C14.0789 6.54691 14.1667 6.33495 14.1667 6.11393V5.2806H15C15.221 5.2806 15.433 5.3684 15.5893 5.52468C15.7455 5.68096 15.8333 5.89292 15.8333 6.11393V9.44727Z" fill="#181A18"/>
<path d="M13.6667 3.61393V4.11393H14.1667H15C15.5304 4.11393 16.0391 4.32465 16.4142 4.69972C16.7893 5.07479 17 5.5835 17 6.11393V16.1139C17 16.6444 16.7893 17.1531 16.4142 17.5281C16.0391 17.9032 15.5304 18.1139 15 18.1139H5C4.46957 18.1139 3.96086 17.9032 3.58579 17.5281C3.21071 17.1531 3 16.6444 3 16.1139V6.11393C3 5.5835 3.21071 5.07479 3.58579 4.69972C3.96086 4.32465 4.46957 4.11393 5 4.11393H5.83333H6.33333V3.61393V2.7806C6.33333 2.69219 6.36845 2.60741 6.43096 2.5449C6.49348 2.48238 6.57826 2.44727 6.66667 2.44727C6.75507 2.44727 6.83986 2.48238 6.90237 2.5449C6.96488 2.60741 7 2.69219 7 2.7806V3.61393V4.11393H7.5H12.5H13V3.61393V2.7806C13 2.69219 13.0351 2.60741 13.0976 2.5449C13.1601 2.48238 13.2449 2.44727 13.3333 2.44727C13.4217 2.44727 13.5065 2.48238 13.569 2.5449C13.6315 2.60741 13.6667 2.69219 13.6667 2.7806V3.61393ZM15.8333 9.94727H16.3333V9.44727V6.11393C16.3333 5.76031 16.1929 5.42117 15.9428 5.17112C15.6928 4.92107 15.3536 4.7806 15 4.7806H14.1667H13.6667V5.2806V6.11393C13.6667 6.20234 13.6315 6.28712 13.569 6.34963C13.5065 6.41215 13.4217 6.44727 13.3333 6.44727C13.2449 6.44727 13.1601 6.41215 13.0976 6.34963C13.0351 6.28712 13 6.20234 13 6.11393V5.2806V4.7806H12.5H7.5H7V5.2806V6.11393C7 6.20234 6.96488 6.28712 6.90237 6.34963C6.83986 6.41215 6.75507 6.44727 6.66667 6.44727C6.57826 6.44727 6.49348 6.41215 6.43096 6.34963C6.36845 6.28712 6.33333 6.20234 6.33333 6.11393V5.2806V4.7806H5.83333H5C4.64638 4.7806 4.30724 4.92108 4.05719 5.17112C3.80714 5.42117 3.66667 5.76031 3.66667 6.11393V9.44727V9.94727H4.16667H15.8333ZM5.92591 14.7226C6.14517 14.8691 6.40296 14.9473 6.66667 14.9473C7.02029 14.9473 7.35943 14.8068 7.60948 14.5567C7.85952 14.3067 8 13.9676 8 13.6139C8 13.3502 7.9218 13.0924 7.77529 12.8732C7.62878 12.6539 7.42055 12.483 7.17691 12.3821C6.93328 12.2812 6.66519 12.2548 6.40655 12.3062C6.1479 12.3577 5.91033 12.4847 5.72386 12.6711C5.53739 12.8576 5.4104 13.0952 5.35895 13.3538C5.30751 13.6125 5.33391 13.8805 5.43483 14.1242C5.53574 14.3678 5.70664 14.5761 5.92591 14.7226ZM10 14.9473H13.3333C13.687 14.9473 14.0261 14.8068 14.2761 14.5567C14.5262 14.3067 14.6667 13.9676 14.6667 13.6139C14.6667 13.2603 14.5262 12.9212 14.2761 12.6711C14.0261 12.4211 13.687 12.2806 13.3333 12.2806H10C9.64638 12.2806 9.30724 12.4211 9.05719 12.6711C8.80714 12.9212 8.66667 13.2603 8.66667 13.6139C8.66667 13.9676 8.80714 14.3067 9.05719 14.5567C9.30724 14.8068 9.64638 14.9473 10 14.9473Z" stroke="black"/>
</g>
</g>
<defs>
<filter id="filter0_d_547_331" x="-1.5" y="1.94727" width="23" height="24.666" filterUnits="userSpaceOnUse" color-interpolation-filters="sRGB">
<feFlood flood-opacity="0" result="BackgroundImageFix"/>
<feColorMatrix in="SourceAlpha" type="matrix" values="0 0 0 0 0 0 0 0 0 0 0 0 0 0 0 0 0 0 127 0" result="hardAlpha"/>
<feOffset dy="4"/>
<feGaussianBlur stdDeviation="2"/>
<feComposite in2="hardAlpha" operator="out"/>
<feColorMatrix type="matrix" values="0 0 0 0 0 0 0 0 0 0 0 0 0 0 0 0 0 0 0.25 0"/>
<feBlend mode="normal" in2="BackgroundImageFix" result="effect1_dropShadow_547_331"/>
<feBlend mode="normal" in="SourceGraphic" in2="effect1_dropShadow_547_331" result="shape"/>
</filter>
<clipPath id="clip0_547_331">
<rect width="20" height="20" fill="white" transform="translate(0 0.28125)"/>
</clipPath>
</defs>
</svg>
