<svg width="17" height="26" viewBox="0 0 17 26" fill="none" xmlns="http://www.w3.org/2000/svg">
<path d="M9.06226 5.66992L5.43726 11.1934H7.85392V14.8757L11.4789 9.35221H9.06226V5.66992Z" fill="black"/>
<path fill-rule="evenodd" clip-rule="evenodd" d="M16.8621 10.135C16.6787 11.7155 16.0533 13.2096 15.0599 14.4402C14.4787 15.1619 13.0015 17.2216 12.6873 18.5595H4.22896C3.9148 17.2203 2.4358 15.1601 1.85459 14.4384C0.861616 13.2072 0.236811 11.7127 0.054172 10.1319C-0.125892 8.55453 0.145103 6.95783 0.834755 5.53274C1.53089 4.09679 2.61299 2.89035 3.95588 2.05298C5.31043 1.20742 6.86946 0.760409 8.45934 0.761722C10.0531 0.761722 11.6143 1.20973 12.9628 2.05482C14.3054 2.89251 15.387 4.09916 16.0827 5.5352C16.7721 6.96059 17.0426 8.55751 16.8621 10.135ZM11.8312 17.332H5.08446C4.82709 16.7288 4.48332 16.1242 4.16311 15.6106C3.74176 14.9355 3.28348 14.285 2.79044 13.662C1.94353 12.6123 1.41055 11.3381 1.25465 9.99016C1.10117 8.64684 1.3319 7.28704 1.91923 6.07343C2.515 4.84546 3.44084 3.81392 4.58965 3.09814C5.75364 2.37178 7.09326 1.98787 8.45934 1.98915C9.8308 1.98915 11.172 2.37518 12.329 3.09998C13.4774 3.81591 14.4028 4.84744 14.9982 6.07527C15.5853 7.28919 15.8156 8.64921 15.6616 9.99261C15.5051 11.3402 14.9718 12.614 14.1246 13.6632C13.6313 14.2859 13.1732 14.9364 12.7525 15.6118C12.4323 16.1255 12.0886 16.7288 11.8312 17.332Z" fill="black"/>
<path fill-rule="evenodd" clip-rule="evenodd" d="M16.8621 10.135C16.6787 11.7155 16.0533 13.2096 15.0599 14.4402C14.4787 15.1619 13.0015 17.2216 12.6873 18.5595H4.22896C3.9148 17.2203 2.4358 15.1601 1.85459 14.4384C0.861616 13.2072 0.236811 11.7127 0.054172 10.1319C-0.125892 8.55453 0.145103 6.95783 0.834755 5.53274C1.53089 4.09679 2.61299 2.89035 3.95588 2.05298C5.31043 1.20742 6.86946 0.760409 8.45934 0.761722C10.0531 0.761722 11.6143 1.20973 12.9628 2.05482C14.3054 2.89251 15.387 4.09916 16.0827 5.5352C16.7721 6.96059 17.0426 8.55751 16.8621 10.135ZM11.8312 17.332H5.08446C4.82709 16.7288 4.48332 16.1242 4.16311 15.6106C3.74176 14.9355 3.28348 14.285 2.79044 13.662C1.94353 12.6123 1.41055 11.3381 1.25465 9.99016C1.10117 8.64684 1.3319 7.28704 1.91923 6.07343C2.515 4.84546 3.44084 3.81392 4.58965 3.09814C5.75364 2.37178 7.09326 1.98787 8.45934 1.98915C9.8308 1.98915 11.172 2.37518 12.329 3.09998C13.4774 3.81591 14.4028 4.84744 14.9982 6.07527C15.5853 7.28919 15.8156 8.64921 15.6616 9.99261C15.5051 11.3402 14.9718 12.614 14.1246 13.6632C13.6313 14.2859 13.1732 14.9364 12.7525 15.6118C12.4323 16.1255 12.0886 16.7288 11.8312 17.332Z" fill="black"/>
<path d="M4.229 20.4008C4.229 20.2381 4.29266 20.082 4.40596 19.9669C4.51926 19.8518 4.67294 19.7871 4.83317 19.7871H12.0832C12.2434 19.7871 12.3971 19.8518 12.5104 19.9669C12.6237 20.082 12.6873 20.2381 12.6873 20.4008C12.6873 20.5636 12.6237 20.7197 12.5104 20.8348C12.3971 20.9499 12.2434 21.0145 12.0832 21.0145H4.83317C4.67294 21.0145 4.51926 20.9499 4.40596 20.8348C4.29266 20.7197 4.229 20.5636 4.229 20.4008Z" fill="black"/>
<path fill-rule="evenodd" clip-rule="evenodd" d="M4.229 22.2402H12.6873V24.0814C12.6873 24.4069 12.56 24.7191 12.3334 24.9493C12.1068 25.1795 11.7995 25.3088 11.479 25.3088H5.43734C5.11687 25.3088 4.80952 25.1795 4.58292 24.9493C4.35631 24.7191 4.229 24.4069 4.229 24.0814V22.2402ZM5.43734 23.4677H11.479V24.0814H5.43734V23.4677Z" fill="black"/>
</svg>
