<svg width="39" height="37" viewBox="0 0 39 37" fill="none" xmlns="http://www.w3.org/2000/svg">
<g clip-path="url(#clip0_336_675)">
<path d="M30.4688 37C32.7314 37 34.9013 36.1473 36.5013 34.6294C38.1012 33.1115 39 31.0528 39 28.9062C39 26.7597 38.1012 24.701 36.5013 23.1831C34.9013 21.6652 32.7314 20.8125 30.4688 20.8125C28.2061 20.8125 26.0362 21.6652 24.4362 23.1831C22.8363 24.701 21.9375 26.7597 21.9375 28.9062C21.9375 31.0528 22.8363 33.1115 24.4362 34.6294C26.0362 36.1473 28.2061 37 30.4688 37ZM31.3316 23.4626L34.9879 26.9314C35.2167 27.1485 35.3453 27.443 35.3453 27.75C35.3453 28.057 35.2167 28.3515 34.9879 28.5686C34.759 28.7857 34.4486 28.9077 34.125 28.9077C33.8014 28.9077 33.491 28.7857 33.2621 28.5686L31.6875 27.0724V33.5312C31.6875 33.8379 31.5591 34.132 31.3305 34.3488C31.102 34.5657 30.792 34.6875 30.4688 34.6875C30.1455 34.6875 29.8355 34.5657 29.607 34.3488C29.3784 34.132 29.25 33.8379 29.25 33.5312V27.0724L27.6754 28.5686C27.4468 28.7857 27.1368 28.9078 26.8134 28.908C26.49 28.9083 26.1797 28.7866 25.9508 28.5698C25.722 28.353 25.5933 28.0588 25.5931 27.752C25.5928 27.4451 25.7211 27.1508 25.9496 26.9337L29.6059 23.4649C29.7191 23.3573 29.8536 23.2718 30.0016 23.2135C30.1497 23.1552 30.3084 23.1252 30.4688 23.1252C30.6291 23.1252 30.7878 23.1552 30.9359 23.2135C31.0839 23.2718 31.2184 23.3573 31.3316 23.4649V23.4626Z" fill="black"/>
<path d="M21.2234 3.46808C20.7663 3.03456 20.1464 2.79102 19.5001 2.79102C18.8537 2.79102 18.2339 3.03456 17.7768 3.46808L1.5747 18.837C1.46139 18.9445 1.3715 19.0721 1.31017 19.2125C1.24885 19.353 1.21729 19.5035 1.21729 19.6556C1.21729 19.8076 1.24885 19.9582 1.31017 20.0986C1.3715 20.2391 1.46139 20.3667 1.5747 20.4742C1.80355 20.6913 2.11393 20.8133 2.43757 20.8133C2.59783 20.8133 2.75651 20.7833 2.90456 20.7252C3.05261 20.667 3.18714 20.5817 3.30045 20.4742L19.5001 5.10302L35.6997 20.4742C35.9285 20.6913 36.2389 20.8133 36.5626 20.8133C36.8862 20.8133 37.1966 20.6913 37.4254 20.4742C37.6543 20.2571 37.7829 19.9626 37.7829 19.6556C37.7829 19.3485 37.6543 19.0541 37.4254 18.837L31.6876 13.3956V5.78058C31.6876 5.47393 31.5592 5.17983 31.3306 4.96299C31.1021 4.74615 30.7921 4.62433 30.4688 4.62433H28.0313C27.7081 4.62433 27.3981 4.74615 27.1695 4.96299C26.941 5.17983 26.8126 5.47393 26.8126 5.78058V8.77065L21.2234 3.46808Z" fill="black"/>
<path d="M19.5 7.61523L30.9855 18.5117C28.9575 18.4208 26.9427 18.8657 25.1654 19.7969C23.3882 20.728 21.9181 22.1088 20.9191 23.7856C19.92 25.4624 19.4311 27.3694 19.5068 29.2942C19.5824 31.219 20.2197 33.0861 21.3476 34.6877H8.53125C7.56155 34.6877 6.63157 34.3222 5.94589 33.6717C5.26021 33.0212 4.875 32.1389 4.875 31.2189V21.4902L19.5 7.61523Z" fill="black"/>
</g>
<defs>
<clipPath id="clip0_336_675">
<rect width="39" height="37" fill="white"/>
</clipPath>
</defs>
</svg>
