<svg width="39" height="37" viewBox="0 0 39 37" fill="none" xmlns="http://www.w3.org/2000/svg">
<path d="M16.3295 18.685C16.9751 17.1373 17.8939 15.7434 19.0333 14.5831C20.1727 13.4229 21.5105 12.5188 22.9702 11.9227C24.4299 11.3266 25.983 11.05 27.5407 11.1088C29.0984 11.1677 30.6302 11.5607 32.0486 12.2655C33.4673 12.9698 34.7449 13.9722 35.8084 15.2153C36.8719 16.4584 37.7005 17.9179 38.2469 19.5104C38.7933 21.103 39.0468 22.7974 38.9929 24.4968C38.939 26.1963 38.5787 27.8675 37.9327 29.415C36.9925 31.6795 35.4732 33.5998 33.5571 34.9453C31.6411 36.2907 29.4098 37.0042 27.1311 37C22.5528 37 18.3644 34.114 16.3974 29.6H0V25.9C0.101742 23.791 1.42438 22.0705 3.96793 20.683C6.51147 19.2955 9.69938 18.574 13.5656 18.5C14.5321 18.5 15.4478 18.5925 16.3295 18.685ZM13.5656 0C15.4647 0.0555 17.0587 0.777 18.3305 2.1645C19.6022 3.552 20.2296 5.291 20.2296 7.4C20.2296 9.509 19.6022 11.248 18.3305 12.6355C17.0587 14.023 15.4647 14.7075 13.5656 14.7075C11.6664 14.7075 10.0724 14.023 8.80066 12.6355C7.52889 11.248 6.90148 9.509 6.90148 7.4C6.90148 5.291 7.52889 3.552 8.80066 2.1645C10.0724 0.777 11.6664 0.0555 13.5656 0ZM27.1311 33.3C29.3798 33.3 31.5363 32.3254 33.1263 30.5907C34.7163 28.856 35.6096 26.5032 35.6096 24.05C35.6096 21.5967 34.7163 19.244 33.1263 17.5093C31.5363 15.7745 29.3798 14.8 27.1311 14.8C24.8825 14.8 22.726 15.7745 21.1359 17.5093C19.5459 19.244 18.6527 21.5967 18.6527 24.05C18.6527 26.5032 19.5459 28.856 21.1359 30.5907C22.726 32.3254 24.8825 33.3 27.1311 33.3ZM25.4354 18.5H27.979V23.717L32.1165 26.3255L30.8447 28.7305L25.4354 25.3265V18.5Z" fill="black"/>
</svg>
