<svg width="38" height="37" viewBox="0 0 38 37" fill="none" xmlns="http://www.w3.org/2000/svg">
<path d="M18.6912 17.0663C19.7362 16.1413 20.4012 14.7538 20.4012 13.2737C20.4012 10.4062 18.0262 8.09375 15.0812 8.09375C12.1362 8.09375 9.76121 10.4062 9.76121 13.2737C9.76121 14.8 10.4262 16.1413 11.4712 17.0663C10.2837 17.4825 9.23871 18.13 8.33621 19.055C5.15371 22.385 5.34371 27.75 5.34371 27.9813C5.39121 28.5363 5.81871 28.9525 6.38871 28.9063C6.95871 28.86 7.33871 28.4438 7.33871 27.8888C7.33871 27.8425 7.14871 23.125 9.85621 20.35C11.1387 19.055 12.8962 18.3613 15.1287 18.3613C17.3137 18.3613 19.0712 19.0088 20.3537 20.3038C23.0612 23.0325 22.8712 27.7963 22.8712 27.8425C22.8237 28.3975 23.2512 28.8138 23.8212 28.86H23.8687C24.3912 28.86 24.8187 28.4438 24.8662 27.935C24.8662 27.7038 25.1037 22.3388 21.7787 19.0088C20.9237 18.13 19.8787 17.4825 18.6912 17.0663ZM11.8037 13.2737C11.8037 11.5162 13.2762 10.0363 15.1287 10.0363C16.9812 10.0363 18.4537 11.47 18.4537 13.2737C18.4537 15.0312 16.9812 16.5113 15.1287 16.5113C13.2762 16.5113 11.8037 15.0312 11.8037 13.2737ZM30.7562 15.4475C30.2812 14.9388 29.7112 14.5688 29.0937 14.2913C29.6162 13.6438 29.9487 12.8575 29.9487 11.9787C29.9487 9.94375 28.2862 8.325 26.1962 8.325C24.1062 8.325 22.4437 9.94375 22.4437 11.9787C22.4437 12.8575 22.7762 13.6438 23.2987 14.2913C22.8237 14.5225 22.3487 14.8 21.9687 15.17C21.5412 15.54 21.5412 16.1413 21.8737 16.5575C22.2537 16.9738 22.8712 16.9738 23.2987 16.65C24.0587 16.0025 25.0087 15.6788 26.1962 15.6788C27.5262 15.6788 28.5237 16.0488 29.2837 16.835C30.8987 18.5 30.8037 21.3675 30.8037 21.4138C30.7562 21.9688 31.1837 22.385 31.7537 22.4313H31.8012C32.3237 22.4313 32.7512 22.015 32.7987 21.5063C32.8462 21.3213 32.9412 17.7138 30.7562 15.4475ZM24.4387 12.025C24.4387 11.1 25.2462 10.3138 26.1962 10.3138C27.1462 10.3138 27.9537 11.1 27.9537 12.025C27.9537 12.95 27.1462 13.7363 26.1962 13.7363C25.2462 13.7363 24.4387 12.95 24.4387 12.025Z" fill="black"/>
</svg>
