<svg width="17" height="22" viewBox="0 0 17 22" fill="none" xmlns="http://www.w3.org/2000/svg">
<path d="M3.2509 2.50586C2.3509 2.50586 1.6219 3.21602 1.5139 4.11239C1.57969 4.0933 1.64765 4.08374 1.7159 4.08398H14.7159C14.7859 4.08398 14.8529 4.09451 14.9169 4.11239C14.8627 3.66832 14.6565 3.26026 14.337 2.96456C14.0174 2.66886 13.6065 2.50579 13.1809 2.50586H3.2509ZM3.0659 19.6864C3.08563 19.8798 3.1726 20.0588 3.31011 20.1889C3.44761 20.319 3.62596 20.3911 3.8109 20.3913H12.6179C12.803 20.3913 12.9816 20.3194 13.1193 20.1893C13.257 20.0591 13.3442 19.88 13.3639 19.6864L14.8059 5.6579C14.776 5.66153 14.746 5.66329 14.7159 5.66316H1.7159C1.6855 5.66333 1.65511 5.66157 1.6249 5.6579L3.0659 19.6864ZM0.0189014 4.71523C-0.0302492 4.23786 0.016719 3.75494 0.156748 3.29793C0.296777 2.84092 0.526726 2.42006 0.831624 2.06276C1.13652 1.70546 1.50953 1.41972 1.92636 1.22416C2.34319 1.0286 2.7945 0.927601 3.2509 0.927735H13.1809C13.6372 0.927749 14.0884 1.02886 14.5051 1.22449C14.9218 1.42011 15.2947 1.70587 15.5995 2.06315C15.9043 2.42044 16.1342 2.84124 16.2741 3.29818C16.4141 3.75512 16.461 4.23795 16.4119 4.71523L14.8559 19.8558C14.7965 20.4363 14.5352 20.9733 14.1222 21.3634C13.7093 21.7536 13.1739 21.9694 12.6189 21.9694H3.8119C3.25706 21.9694 2.72177 21.7537 2.30887 21.3638C1.89597 20.9739 1.63458 20.4372 1.5749 19.8568L0.0189014 4.71523ZM8.0079 9.77575C8.03077 9.73995 8.06166 9.71062 8.09784 9.69033C8.13403 9.67005 8.1744 9.65944 8.2154 9.65944C8.2564 9.65944 8.29677 9.67005 8.33296 9.69033C8.36914 9.71062 8.40003 9.73995 8.4229 9.77575L9.0929 10.8278C9.20461 10.9992 9.37607 11.1173 9.57005 11.1565C9.76403 11.1956 9.96486 11.1527 10.1289 11.037C10.293 10.9214 10.4071 10.7422 10.4464 10.5386C10.4857 10.3349 10.4471 10.1232 10.3389 9.94935L9.6699 8.89726C9.50997 8.64577 9.29359 8.43961 9.03989 8.29705C8.7862 8.15449 8.50302 8.07991 8.2154 8.07991C7.92779 8.07991 7.6446 8.15449 7.39091 8.29705C7.13722 8.43961 6.92083 8.64577 6.7609 8.89726L6.0919 9.94935C6.03714 10.0355 5.99904 10.1321 5.97978 10.2338C5.96052 10.3354 5.96048 10.44 5.97966 10.5417C5.99883 10.6433 6.03685 10.74 6.09154 10.8262C6.14623 10.9124 6.21652 10.9864 6.2984 11.044C6.38028 11.1017 6.47214 11.1417 6.56875 11.162C6.66535 11.1823 6.7648 11.1823 6.86142 11.1621C6.95804 11.142 7.04994 11.102 7.13186 11.0444C7.21379 10.9869 7.28414 10.9129 7.3389 10.8268L8.0079 9.77575ZM5.8519 12.0798C6.02215 12.1875 6.14483 12.3619 6.19302 12.5647C6.2412 12.7674 6.21095 12.982 6.1089 13.1614L5.7449 13.8C5.69947 13.8797 5.67495 13.9707 5.67384 14.0637C5.67272 14.1567 5.69505 14.2483 5.73855 14.3293C5.78204 14.4102 5.84516 14.4776 5.92146 14.5245C5.99776 14.5714 6.08452 14.5962 6.1729 14.5964H6.9659C7.16481 14.5964 7.35558 14.6795 7.49623 14.8275C7.63688 14.9755 7.7159 15.1762 7.7159 15.3855C7.7159 15.5947 7.63688 15.7954 7.49623 15.9434C7.35558 16.0914 7.16481 16.1745 6.9659 16.1745H6.1729C4.6189 16.1745 3.6589 14.3902 4.4579 12.9878L4.8229 12.3491C4.92528 12.1697 5.09121 12.0405 5.28418 11.9898C5.47715 11.9391 5.68136 11.9711 5.8519 12.0788M10.3249 13.1603C10.271 13.0714 10.2345 12.972 10.2177 12.868C10.2009 12.764 10.2041 12.6575 10.2271 12.5549C10.2501 12.4522 10.2924 12.3554 10.3515 12.2703C10.4107 12.1851 10.4855 12.1133 10.5715 12.059C10.6574 12.0048 10.7529 11.9692 10.8522 11.9545C10.9514 11.9397 11.0525 11.9461 11.1494 11.9731C11.2463 12.0002 11.3371 12.0474 11.4164 12.112C11.4956 12.1765 11.5618 12.2572 11.6109 12.3491L11.9749 12.9878C12.7739 14.3902 11.8139 16.1735 10.2599 16.1735H9.4659C9.26699 16.1735 9.07622 16.0903 8.93557 15.9424C8.79492 15.7944 8.7159 15.5937 8.7159 15.3844C8.7159 15.1751 8.79492 14.9744 8.93557 14.8265C9.07622 14.6785 9.26699 14.5953 9.4659 14.5953H10.2599C10.3484 14.5954 10.4353 14.5707 10.5117 14.5238C10.5881 14.477 10.6514 14.4096 10.695 14.3287C10.7386 14.2477 10.761 14.156 10.76 14.0629C10.7589 13.9699 10.7344 13.8788 10.6889 13.7989L10.3249 13.1603Z" fill="black"/>
</svg>
