<svg width="12" height="18" viewBox="0 0 12 18" fill="none" xmlns="http://www.w3.org/2000/svg">
<path d="M6 0L5.25 0.88375C5.25 0.88375 3.97 2.40927 2.68 4.38719C1.39 6.3651 0 8.73229 0 11.0048C0 12.679 0.632141 14.2846 1.75736 15.4684C2.88258 16.6522 4.4087 17.3173 6 17.3173C7.5913 17.3173 9.11742 16.6522 10.2426 15.4684C11.3679 14.2846 12 12.679 12 11.0048C12 8.73229 10.61 6.3651 9.32 4.38719C8.52434 3.17122 7.6664 2.00168 6.75 0.88375L6 0ZM6 3.29302C6.44 3.8401 6.84 4.2925 7.68 5.57604C8.89 7.42771 10 9.78437 10 11.0048C10 13.3404 8.22 15.2131 6 15.2131C3.78 15.2131 2 13.3404 2 11.0048C2 9.78437 3.11 7.42771 4.32 5.57604C5.16 4.2925 5.56 3.8401 6 3.29302Z" fill="black"/>
</svg>
